<svg width="379" height="62" viewBox="0 0 379 62" fill="none" xmlns="http://www.w3.org/2000/svg">
<rect width="379" height="62" fill="white"/>
<path d="M16.0909 48.7273C12.8182 48.7273 10 47.9545 7.63636 46.4091C5.27273 44.8636 3.45455 42.7348 2.18182 40.0227C0.909091 37.3106 0.272727 34.2121 0.272727 30.7273C0.272727 27.1818 0.924243 24.053 2.22727 21.3409C3.54545 18.6136 5.37879 16.4848 7.72727 14.9545C10.0909 13.4091 12.8485 12.6364 16 12.6364C18.4545 12.6364 20.6667 13.0909 22.6364 14C24.6061 14.9091 26.2197 16.1818 27.4773 17.8182C28.7348 19.4545 29.5152 21.3636 29.8182 23.5455H24.4545C24.0455 21.9545 23.1364 20.5455 21.7273 19.3182C20.3333 18.0758 18.4545 17.4545 16.0909 17.4545C14 17.4545 12.1667 18 10.5909 19.0909C9.0303 20.1667 7.81061 21.6894 6.93182 23.6591C6.06818 25.6136 5.63636 27.9091 5.63636 30.5455C5.63636 33.2424 6.06061 35.5909 6.90909 37.5909C7.77273 39.5909 8.98485 41.1439 10.5455 42.25C12.1212 43.3561 13.9697 43.9091 16.0909 43.9091C17.4848 43.9091 18.75 43.6667 19.8864 43.1818C21.0227 42.697 21.9848 42 22.7727 41.0909C23.5606 40.1818 24.1212 39.0909 24.4545 37.8182H29.8182C29.5152 39.8788 28.7652 41.7348 27.5682 43.3864C26.3864 45.0227 24.8182 46.3258 22.8636 47.2955C20.9242 48.25 18.6667 48.7273 16.0909 48.7273ZM51.8409 48.7273C48.6894 48.7273 45.9242 47.9773 43.5455 46.4773C41.1818 44.9773 39.3333 42.8788 38 40.1818C36.6818 37.4848 36.0227 34.3333 36.0227 30.7273C36.0227 27.0909 36.6818 23.9167 38 21.2045C39.3333 18.4924 41.1818 16.3864 43.5455 14.8864C45.9242 13.3864 48.6894 12.6364 51.8409 12.6364C54.9924 12.6364 57.75 13.3864 60.1136 14.8864C62.4924 16.3864 64.3409 18.4924 65.6591 21.2045C66.9924 23.9167 67.6591 27.0909 67.6591 30.7273C67.6591 34.3333 66.9924 37.4848 65.6591 40.1818C64.3409 42.8788 62.4924 44.9773 60.1136 46.4773C57.75 47.9773 54.9924 48.7273 51.8409 48.7273ZM51.8409 43.9091C54.2348 43.9091 56.2045 43.2955 57.75 42.0682C59.2955 40.8409 60.4394 39.2273 61.1818 37.2273C61.9242 35.2273 62.2955 33.0606 62.2955 30.7273C62.2955 28.3939 61.9242 26.2197 61.1818 24.2045C60.4394 22.1894 59.2955 20.5606 57.75 19.3182C56.2045 18.0758 54.2348 17.4545 51.8409 17.4545C49.447 17.4545 47.4773 18.0758 45.9318 19.3182C44.3864 20.5606 43.2424 22.1894 42.5 24.2045C41.7576 26.2197 41.3864 28.3939 41.3864 30.7273C41.3864 33.0606 41.7576 35.2273 42.5 37.2273C43.2424 39.2273 44.3864 40.8409 45.9318 42.0682C47.4773 43.2955 49.447 43.9091 51.8409 43.9091ZM75.8466 48V13.0909H81.0284V18.5455H81.483C82.2102 16.6818 83.3845 15.2348 85.0057 14.2045C86.6269 13.1591 88.5739 12.6364 90.8466 12.6364C93.1496 12.6364 95.0663 13.1591 96.5966 14.2045C98.142 15.2348 99.3466 16.6818 100.21 18.5455H100.574C101.468 16.7424 102.809 15.3106 104.597 14.25C106.384 13.1742 108.528 12.6364 111.028 12.6364C114.15 12.6364 116.703 13.6136 118.688 15.5682C120.672 17.5076 121.665 20.5303 121.665 24.6364V48H116.301V24.6364C116.301 22.0606 115.597 20.2197 114.188 19.1136C112.778 18.0076 111.119 17.4545 109.21 17.4545C106.756 17.4545 104.854 18.197 103.506 19.6818C102.157 21.1515 101.483 23.0152 101.483 25.2727V48H96.0284V24.0909C96.0284 22.1061 95.3845 20.5076 94.0966 19.2955C92.8087 18.0682 91.1496 17.4545 89.1193 17.4545C87.7254 17.4545 86.4223 17.8258 85.2102 18.5682C84.0133 19.3106 83.0436 20.3409 82.3011 21.6591C81.5739 22.9621 81.2102 24.4697 81.2102 26.1818V48H75.8466ZM131.472 48V13.0909H136.835V48H131.472ZM134.199 7.27273C133.153 7.27273 132.252 6.91667 131.494 6.20454C130.752 5.49242 130.381 4.63636 130.381 3.63636C130.381 2.63636 130.752 1.7803 131.494 1.06818C132.252 0.35606 133.153 0 134.199 0C135.244 0 136.138 0.35606 136.881 1.06818C137.638 1.7803 138.017 2.63636 138.017 3.63636C138.017 4.63636 137.638 5.49242 136.881 6.20454C136.138 6.91667 135.244 7.27273 134.199 7.27273ZM152.023 27V48H146.659V13.0909H151.841V18.5455H152.295C153.114 16.7727 154.356 15.3485 156.023 14.2727C157.689 13.1818 159.841 12.6364 162.477 12.6364C164.841 12.6364 166.909 13.1212 168.682 14.0909C170.455 15.0455 171.833 16.5 172.818 18.4545C173.803 20.3939 174.295 22.8485 174.295 25.8182V48H168.932V26.1818C168.932 23.4394 168.22 21.303 166.795 19.7727C165.371 18.2273 163.417 17.4545 160.932 17.4545C159.22 17.4545 157.689 17.8258 156.341 18.5682C155.008 19.3106 153.955 20.3939 153.182 21.8182C152.409 23.2424 152.023 24.9697 152.023 27ZM198.188 61.8182C195.597 61.8182 193.369 61.4848 191.506 60.8182C189.642 60.1667 188.089 59.303 186.847 58.2273C185.619 57.1667 184.642 56.0303 183.915 54.8182L188.188 51.8182C188.672 52.4545 189.286 53.1818 190.028 54C190.771 54.8333 191.786 55.553 193.074 56.1591C194.377 56.7803 196.081 57.0909 198.188 57.0909C201.006 57.0909 203.331 56.4091 205.165 55.0455C206.998 53.6818 207.915 51.5455 207.915 48.6364V41.5455H207.46C207.066 42.1818 206.506 42.9697 205.778 43.9091C205.066 44.8333 204.036 45.6591 202.688 46.3864C201.354 47.0985 199.551 47.4545 197.278 47.4545C194.46 47.4545 191.93 46.7879 189.688 45.4545C187.46 44.1212 185.695 42.1818 184.392 39.6364C183.104 37.0909 182.46 34 182.46 30.3636C182.46 26.7879 183.089 23.6742 184.347 21.0227C185.604 18.3561 187.354 16.2955 189.597 14.8409C191.839 13.3712 194.43 12.6364 197.369 12.6364C199.642 12.6364 201.445 13.0152 202.778 13.7727C204.127 14.5152 205.157 15.3636 205.869 16.3182C206.597 17.2576 207.157 18.0303 207.551 18.6364H208.097V13.0909H213.278V49C213.278 52 212.597 54.4394 211.233 56.3182C209.884 58.2121 208.066 59.5985 205.778 60.4773C203.506 61.3712 200.975 61.8182 198.188 61.8182ZM198.006 42.6364C200.157 42.6364 201.975 42.1439 203.46 41.1591C204.945 40.1742 206.074 38.7576 206.847 36.9091C207.619 35.0606 208.006 32.8485 208.006 30.2727C208.006 27.7576 207.627 25.5379 206.869 23.6136C206.112 21.6894 204.991 20.1818 203.506 19.0909C202.021 18 200.188 17.4545 198.006 17.4545C195.733 17.4545 193.839 18.0303 192.324 19.1818C190.824 20.3333 189.695 21.8788 188.938 23.8182C188.195 25.7576 187.824 27.9091 187.824 30.2727C187.824 32.697 188.203 34.8409 188.96 36.7045C189.733 38.553 190.869 40.0076 192.369 41.0682C193.884 42.1136 195.763 42.6364 198.006 42.6364ZM265.824 20.9091L261.006 22.2727C260.703 21.4697 260.256 20.6894 259.665 19.9318C259.089 19.1591 258.301 18.5227 257.301 18.0227C256.301 17.5227 255.021 17.2727 253.46 17.2727C251.324 17.2727 249.544 17.7652 248.119 18.75C246.71 19.7197 246.006 20.9545 246.006 22.4545C246.006 23.7879 246.491 24.8409 247.46 25.6136C248.43 26.3864 249.945 27.0303 252.006 27.5455L257.188 28.8182C260.309 29.5758 262.634 30.7348 264.165 32.2955C265.695 33.8409 266.46 35.8333 266.46 38.2727C266.46 40.2727 265.884 42.0606 264.733 43.6364C263.597 45.2121 262.006 46.4545 259.96 47.3636C257.915 48.2727 255.536 48.7273 252.824 48.7273C249.263 48.7273 246.316 47.9545 243.983 46.4091C241.65 44.8636 240.172 42.6061 239.551 39.6364L244.642 38.3636C245.127 40.2424 246.044 41.6515 247.392 42.5909C248.756 43.5303 250.536 44 252.733 44C255.233 44 257.218 43.4697 258.688 42.4091C260.172 41.3333 260.915 40.0455 260.915 38.5455C260.915 37.3333 260.491 36.3182 259.642 35.5C258.794 34.6667 257.491 34.0455 255.733 33.6364L249.915 32.2727C246.718 31.5152 244.369 30.3409 242.869 28.75C241.384 27.1439 240.642 25.1364 240.642 22.7273C240.642 20.7576 241.195 19.0152 242.301 17.5C243.422 15.9848 244.945 14.7955 246.869 13.9318C248.809 13.0682 251.006 12.6364 253.46 12.6364C256.915 12.6364 259.627 13.3939 261.597 14.9091C263.581 16.4242 264.991 18.4242 265.824 20.9091ZM288.716 48.7273C285.564 48.7273 282.799 47.9773 280.42 46.4773C278.057 44.9773 276.208 42.8788 274.875 40.1818C273.557 37.4848 272.898 34.3333 272.898 30.7273C272.898 27.0909 273.557 23.9167 274.875 21.2045C276.208 18.4924 278.057 16.3864 280.42 14.8864C282.799 13.3864 285.564 12.6364 288.716 12.6364C291.867 12.6364 294.625 13.3864 296.989 14.8864C299.367 16.3864 301.216 18.4924 302.534 21.2045C303.867 23.9167 304.534 27.0909 304.534 30.7273C304.534 34.3333 303.867 37.4848 302.534 40.1818C301.216 42.8788 299.367 44.9773 296.989 46.4773C294.625 47.9773 291.867 48.7273 288.716 48.7273ZM288.716 43.9091C291.11 43.9091 293.08 43.2955 294.625 42.0682C296.17 40.8409 297.314 39.2273 298.057 37.2273C298.799 35.2273 299.17 33.0606 299.17 30.7273C299.17 28.3939 298.799 26.2197 298.057 24.2045C297.314 22.1894 296.17 20.5606 294.625 19.3182C293.08 18.0758 291.11 17.4545 288.716 17.4545C286.322 17.4545 284.352 18.0758 282.807 19.3182C281.261 20.5606 280.117 22.1894 279.375 24.2045C278.633 26.2197 278.261 28.3939 278.261 30.7273C278.261 33.0606 278.633 35.2273 279.375 37.2273C280.117 39.2273 281.261 40.8409 282.807 42.0682C284.352 43.2955 286.322 43.9091 288.716 43.9091ZM326.903 48.7273C323.752 48.7273 320.987 47.9773 318.608 46.4773C316.244 44.9773 314.396 42.8788 313.062 40.1818C311.744 37.4848 311.085 34.3333 311.085 30.7273C311.085 27.0909 311.744 23.9167 313.062 21.2045C314.396 18.4924 316.244 16.3864 318.608 14.8864C320.987 13.3864 323.752 12.6364 326.903 12.6364C330.055 12.6364 332.813 13.3864 335.176 14.8864C337.555 16.3864 339.403 18.4924 340.722 21.2045C342.055 23.9167 342.722 27.0909 342.722 30.7273C342.722 34.3333 342.055 37.4848 340.722 40.1818C339.403 42.8788 337.555 44.9773 335.176 46.4773C332.813 47.9773 330.055 48.7273 326.903 48.7273ZM326.903 43.9091C329.297 43.9091 331.267 43.2955 332.812 42.0682C334.358 40.8409 335.502 39.2273 336.244 37.2273C336.987 35.2273 337.358 33.0606 337.358 30.7273C337.358 28.3939 336.987 26.2197 336.244 24.2045C335.502 22.1894 334.358 20.5606 332.812 19.3182C331.267 18.0758 329.297 17.4545 326.903 17.4545C324.509 17.4545 322.54 18.0758 320.994 19.3182C319.449 20.5606 318.305 22.1894 317.562 24.2045C316.82 26.2197 316.449 28.3939 316.449 30.7273C316.449 33.0606 316.82 35.2273 317.562 37.2273C318.305 39.2273 319.449 40.8409 320.994 42.0682C322.54 43.2955 324.509 43.9091 326.903 43.9091ZM356.273 27V48H350.909V13.0909H356.091V18.5455H356.545C357.364 16.7727 358.606 15.3485 360.273 14.2727C361.939 13.1818 364.091 12.6364 366.727 12.6364C369.091 12.6364 371.159 13.1212 372.932 14.0909C374.705 15.0455 376.083 16.5 377.068 18.4545C378.053 20.3939 378.545 22.8485 378.545 25.8182V48H373.182V26.1818C373.182 23.4394 372.47 21.303 371.045 19.7727C369.621 18.2273 367.667 17.4545 365.182 17.4545C363.47 17.4545 361.939 17.8258 360.591 18.5682C359.258 19.3106 358.205 20.3939 357.432 21.8182C356.659 23.2424 356.273 24.9697 356.273 27Z" fill="black"/>
</svg>
